<?xml version="1.0" encoding="UTF-8" standalone="no"?>
<!-- Created with Inkscape (http://www.inkscape.org/) -->

<svg
   xmlns:dc="http://purl.org/dc/elements/1.1/"
   xmlns:cc="http://creativecommons.org/ns#"
   xmlns:rdf="http://www.w3.org/1999/02/22-rdf-syntax-ns#"
   xmlns:svg="http://www.w3.org/2000/svg"
   xmlns="http://www.w3.org/2000/svg"
   xmlns:sodipodi="http://sodipodi.sourceforge.net/DTD/sodipodi-0.dtd"
   xmlns:inkscape="http://www.inkscape.org/namespaces/inkscape"
   width="210mm"
   height="297mm"
   viewBox="0 -500 1900 4000"
   id="svg2"
   version="1.1"
   inkscape:version="0.92.1 unknown"
   sodipodi:docname="Puget-Sound-Resistance-Logo_1-color.svg">
  <defs
     id="defs4" />
  <sodipodi:namedview
     id="base"
     pagecolor="#ffffff"
     bordercolor="#666666"
     borderopacity="1.0"
     inkscape:pageopacity="0.0"
     inkscape:pageshadow="2"
     inkscape:zoom="0.2628188"
     inkscape:cx="641.4444"
     inkscape:cy="519.0831"
     inkscape:document-units="px"
     inkscape:current-layer="layer1"
     showgrid="false"
     inkscape:window-width="1920"
     inkscape:window-height="1017"
     inkscape:window-x="-8"
     inkscape:window-y="-8"
     inkscape:window-maximized="1" />
  <metadata
     id="metadata7">
    <rdf:RDF>
      <cc:Work
         rdf:about="">
        <dc:format>image/svg+xml</dc:format>
        <dc:type
           rdf:resource="http://purl.org/dc/dcmitype/StillImage" />
        <dc:title></dc:title>
      </cc:Work>
    </rdf:RDF>
  </metadata>
  <g
     inkscape:label="Layer 1"
     inkscape:groupmode="layer"
     id="layer1">
    <path
       style="fill:#00ffff;stroke-width:0.99999994"
       d="m 949.99999,738.61305 c -1.74678,0 -3.49293,0.76402 -5.99936,2.29673 l -653.5033,377.86092 v 762.3265 l 659.50266,380.2899 659.50261,-380.2899 v -762.3265 c -187.168,-113.8655 -432.8948,-245.0614 -653.50328,-377.86092 -2.50644,-1.53271 -4.25254,-2.29673 -5.99933,-2.29673 z m -44.02068,124.81686 2.09489,255.43119 c 1.3153,1.3153 4.58391,1.5729 20.06508,1.5729 17.14671,0 18.4594,0.1246 17.97713,1.747 -0.28611,0.9624 -0.99455,10.7493 -1.57289,21.7493 -0.57838,11 -1.55675,27.3332 -2.17147,36.2953 -0.61473,8.962 -0.88113,16.5323 -0.59157,16.8218 0.69726,0.6973 12.24456,-5.3347 13.80124,-7.2104 0.90703,-1.0929 1.04504,-5.4712 0.54983,-17.1837 -0.71118,-16.8208 -2.4027,-43.6299 -3.09015,-48.969 l -0.4176,-3.2503 h 18.86802 c 15.81731,0 19.11642,-0.2554 20.43392,-1.5729 l 2.0949,-255.43119 529.51466,306.50219 -0.5359,610.3526 -220.4652,-125.8539 -42.4408,73.1474 219.4073,128.7213 -449.0038,256.8928 c 0,-1.2465 -0.9089,-11.0412 -2.0253,-21.7633 -1.1164,-10.7221 -2.4734,-23.7695 -3.0136,-28.9945 -0.5402,-5.225 -1.871,-18.0503 -2.9579,-28.5003 -3.2562,-31.3062 -3.9171,-37.7189 -7.0224,-68.4983 -1.637,-16.225 -3.2522,-30.4 -3.5913,-31.5 -0.9076,-2.9443 -3.9589,-27.4185 -7.3565,-59.005 -1.0794,-10.0355 -5.74601,-53.8223 -8.52572,-79.9959 -0.81777,-7.7 -2.40306,-22.3272 -3.5286,-32.5022 -3.9117,-35.3614 -4.32,-48.8418 -4.39861,-146.0024 l -0.0765,-94.5 2.76998,-16.4948 c 1.52465,-9.075 3.2183,-19.2009 3.76525,-22.5009 1.26091,-7.6077 10.9154,-72.0886 14.4485,-96.5045 4.4728,-30.9095 5.3701,-36.2507 6.236,-37.1165 0.4575,-0.4575 5.0971,-1.7096 10.3074,-2.784 14.9205,-3.0764 29.397,-6.719 31.7715,-7.9898 2.2088,-1.1821 4.0005,-5.6388 2.763,-6.8762 -0.3728,-0.3729 -3.0114,-1.6388 -5.8671,-2.8118 -2.8557,-1.173 -5.1548,-2.5365 -5.1015,-3.0275 0.053,-0.491 0.683,-3.4542 1.3989,-6.591 1.503,-6.5852 -0.7269,-5.6356 21.9373,-9.333 15.8153,-2.5802 18.0676,-3.3925 18.0676,-6.5004 0,-1.7508 -8.6575,-5.687 -19.9677,-9.0756 l -4.148,-1.2458 0.6612,-6.2291 c 0.6218,-5.8061 0.5117,-6.3376 -1.6843,-7.774 -7.3275,-4.7933 -44.7695,-18.5655 -72.72976,-26.7535 l -7.37741,-2.1575 0.58465,-4.9136 c 0.43581,-3.68 0.23344,-5.0432 -0.80736,-5.4426 -4.45868,-1.7109 -39.42438,19.9306 -47.5284,29.4191 -6.73488,7.8855 -8.07718,10.154 -12.63896,21.3874 -4.20596,10.3572 -4.63093,12.2098 -5.06674,21.8189 -0.36069,7.9529 -0.075,11.9572 1.19709,16.5017 0.92378,3.3 2.50904,9.0821 3.52165,12.8547 1.01265,3.7727 2.73164,7.8286 3.82094,9.006 2.17493,2.3508 2.6722,9.3998 3.67477,52.6369 0.26145,11.275 0.76296,26.2344 1.12052,33.2469 0.93479,18.3329 -1.03507,16.3898 -2.53338,-2.4986 -0.66529,-8.3875 -1.44927,-16.8034 -1.73994,-18.7079 l -0.52895,-3.466 -1.81649,2.4081 c -1.00003,1.3258 -2.87136,6.7102 -4.16196,11.9639 -2.71393,11.0478 -2.9298,21.7367 -0.86997,42.9419 0.71539,7.3646 1.34437,18.8335 1.40588,25.4798 0.10002,10.8102 -0.074,12.1148 -1.65642,12.4302 -2.47301,0.4928 -4.36953,-4.5237 -6.23597,-16.4878 -3.47967,-22.3047 -4.68885,-28.8496 -5.46346,-29.6487 -0.44888,-0.463 -2.6324,2.7917 -4.85793,7.2382 -3.23843,6.4702 -3.94968,8.8384 -3.54948,11.8456 0.27503,2.0665 0.9132,6.6767 1.41282,10.2517 0.49963,3.5751 1.59003,11.68 2.42897,18.005 0.83897,6.325 2.76186,19.8217 4.26636,29.9967 l 2.73521,18.4991 0.10437,74.5046 0.11136,74.4976 -2.88134,29.5025 c -3.68029,37.6771 -9.22332,91.8094 -15.24891,148.9952 -2.79924,26.566 -3.61234,34.3976 -5.05278,48.5027 -0.78637,7.7 -2.11431,20.5254 -2.95097,28.5004 -0.83661,7.975 -1.96892,18.7723 -2.51249,23.9973 -0.54352,5.225 -1.67751,16.0293 -2.52638,24.0043 -1.58198,14.862 -3.71835,35.1545 -5.47041,51.9966 -3.26494,31.3857 -4.11567,38.2871 -4.90664,39.81 -0.48406,0.9318 -1.19047,4.2723 -1.57293,7.4261 -0.38242,3.1539 -1.00402,5.8982 -1.37804,6.1038 l -447.18035,-258.4031 215.30108,-124.441 c 7.19973,-3.8618 7.19456,-3.8424 -0.11136,-16.7453 l -38.2719,-61.7472 -220.39563,126.8073 -0.52198,-611.5845 z M 718.37123,977.82796 c -0.13755,0.0668 -0.20746,0.0908 -0.34797,0.16007 L 460.99129,1126.6143 c 0.50789,0.098 0.97149,0.2249 1.6077,0.2575 2.02277,0.1038 4.99092,-0.2326 9.40962,-1.1831 2.50458,-0.5388 5.07009,-0.5344 7.46788,0.4106 2.39774,0.945 4.42443,2.9555 5.43559,5.2407 2.02231,4.5704 0.93415,9.4502 -1.55899,14.3372 -1.15683,2.2675 -1.00054,5.9572 0.97438,8.9711 1.78056,2.7176 2.75619,5.8213 4.05755,9.9595 1.30132,4.1383 2.55215,8.8875 3.39635,13.1749 0.79678,4.0465 0.71429,8.5033 -0.0487,13.2793 -0.46,2.8794 -1.44232,13.5864 -1.98353,22.5984 -2.07854,34.612 -7.47465,63.8916 -15.98665,85.2505 -4.50778,11.3113 -8.44803,16.7806 -15.69433,21.5405 -5.89372,3.8714 -8.51966,6.1449 -9.65321,8.0943 -1.13355,1.9493 -1.56392,4.6757 -1.57291,10.892 -0.0166,11.8121 1.67952,26.9473 3.91836,35.8081 1.17393,4.6462 2.09666,10.2933 2.13664,14.2537 0.0739,7.3128 1.65863,10.1964 5.33122,12.3675 l 7.26601,4.2942 -0.43152,9.0895 c -0.1687,3.559 -0.65767,6.8395 -2.32456,9.9803 -1.66689,3.1409 -4.06439,5.7903 -7.77408,9.7159 -3.80501,4.0264 -6.52464,6.9404 -10.79463,8.3448 -4.26999,1.4043 -8.29461,0.8978 -14.76868,0.2645 -11.1969,-1.0954 -28.28297,0.4712 -33.58794,2.3802 -2.8568,1.028 -5.85741,1.7534 -8.86677,1.7956 -1.76843,0.2208 -3.42645,0.8139 -5.10153,1.2876 v 32.0568 c 1.65539,-0.062 3.03693,-0.1954 5.3312,0.9674 1.3451,0.6818 2.75414,2.3343 3.22935,3.6957 0.47519,1.3613 0.43846,2.2518 0.43846,2.9718 0,1.8124 -1.00227,4.6385 -2.68647,6.1246 -1.68424,1.4861 -3.27646,2.027 -5.16417,2.6795 l -0.69598,0.2436 -0.15311,33.6715 c 2.58902,-0.6743 5.82462,-1.5772 12.29795,-3.5078 11.54455,-3.4429 22.56889,-4.8662 30.78314,-2.7978 1.87299,0.4716 4.14621,1.3406 7.63489,2.6656 3.48868,1.325 7.83834,3.0399 12.47194,4.9066 9.2672,3.7334 19.62113,8.0608 26.36367,11.1009 4.0052,1.8059 8.45206,4.9095 11.65767,8.0525 2.25731,2.2132 4.0315,3.9182 5.20593,6.57 1.17439,2.6519 1.3221,5.0727 1.64248,8.665 0.8745,9.8051 1.36162,14.8447 1.80954,17.1837 0.44799,2.339 0.11068,1.3917 1.36414,2.8813 1.21994,1.4499 1.38439,1.6398 2.84656,2.3107 1.46214,0.6708 4.38852,1.566 9.63233,2.937 l 6.54916,1.7121 19.64748,-2.1018 c 6.51542,-0.6973 11.50426,-1.2006 15.33939,-1.4477 3.83512,-0.247 6.27712,-0.4362 9.08948,0.3271 1.40619,0.3817 3.53551,1.2734 4.66308,3.6887 1.12757,2.4153 0.40049,4.704 -0.22272,5.9646 -1.24644,2.5212 -2.77483,3.8588 -4.73962,5.874 -6.51691,6.6841 -26.44073,29.2478 -30.01063,33.8873 -2.31622,3.0101 -6.92781,8.5908 -10.50928,12.7364 -3.48573,4.0347 -7.68254,8.9832 -9.14514,10.7737 -10.41942,12.7553 -21.17786,24.6021 -27.50509,29.8784 -3.2916,2.7448 -9.86417,8.737 -14.191,12.9591 -4.59852,4.4872 -11.11318,10.3447 -15.00532,13.4602 -3.33837,2.6723 -7.91007,6.9534 -9.20084,8.4423 -2.00457,2.3123 -6.66726,7.4053 -10.61368,11.6089 -2.27541,2.4237 -3.85876,4.3565 -5.06673,6.0411 0.6653,-0.3805 1.32181,-0.7375 1.8861,-1.0649 2.52466,-1.4647 6.65895,-3.8074 9.29132,-5.2685 2.47041,-1.3711 8.12525,-4.6378 12.37451,-7.1477 4.34479,-2.5664 10.5349,-6.1141 13.9335,-7.9898 2.57304,-1.4201 7.845,-5.3298 10.384,-7.7602 3.00709,-2.8785 12.01607,-11.5423 19.98853,-19.223 20.91057,-20.1452 35.90031,-33.0297 49.18481,-42.1624 3.73564,-2.5681 8.25472,-6.0203 8.63711,-6.3682 1.93475,-1.7602 4.9282,-3.8279 7.84367,-5.6792 15.08521,-9.579 24.14743,-17.9376 28.13147,-24.7907 1.63514,-2.8127 3.66518,-5.8332 5.53305,-7.8994 0.0771,-0.085 1.66761,-2.118 3.36853,-4.496 1.70089,-2.378 3.76382,-5.3492 5.74878,-8.303 2.67694,-3.9837 4.51891,-6.9838 6.6118,-9.5767 2.0929,-2.5929 4.73036,-4.8408 8.00375,-6.0759 6.54681,-2.4702 13.90618,-1.8332 29.96886,-1.8652 21.28259,-0.042 28.72763,-0.4246 35.71067,-1.7052 5.23761,-0.9604 13.33503,-2.4278 18.02587,-3.2641 4.53943,-0.8094 10.16798,-2.1044 10.65542,-2.262 1.53633,-0.4966 3.09223,-0.7709 5.2616,-1.1483 2.1694,-0.3774 4.70056,-0.7529 7.15469,-1.0579 10.33571,-1.2844 22.78046,-3.7586 42.12063,-8.4074 4.04886,-0.9733 9.60853,-2.0841 12.97303,-2.5751 2.95307,-0.431 12.22296,-2.7503 20.71932,-5.199 4.24812,-1.2244 8.39874,-2.4895 11.73417,-3.5843 3.33546,-1.0948 6.13423,-2.2045 6.44479,-2.3663 2.36054,-1.23 9.85376,-4.9518 17.02363,-8.4631 10.50921,-5.1466 13.8467,-7.3342 22.1043,-14.4834 2.77138,-2.3993 5.29883,-4.6661 7.07808,-6.3403 0.97787,-0.7026 1.58999,-1.7213 2.31066,-2.5404 0.32587,-0.5322 0.63974,-0.9264 0.97438,-1.3362 0.66931,-0.8196 1.44076,-1.6271 2.31761,-2.436 2.55143,-2.3537 9.96565,-12.1147 12.28404,-16.4529 1.47379,-2.7578 3.87995,-6.723 5.69308,-9.3957 1.54171,-2.2726 7.11478,-12.3476 12.42323,-22.5637 5.30849,-10.216 10.72039,-21.1435 12.84778,-26.12 0.39978,-0.9352 1.6097,-4.6885 2.19232,-7.1338 0.72145,-3.0278 2.22916,-8.3697 3.47293,-12.3537 1.14774,-3.6761 2.55647,-8.9689 2.97185,-10.9894 3.37124,-16.3985 3.83488,-19.5059 3.82789,-25.9113 -0.005,-3.8931 -0.29184,-9.8236 -0.57766,-12.4233 -0.61986,-5.6371 -6.1631,-29.93 -7.41218,-33.2817 -5.06393,-13.588 -5.21385,-28.3497 -0.27841,-41.355 5.649,-14.8857 6.81691,-17.7813 8.77629,-20.4688 0.74461,-1.0212 2.5215,-3.5888 3.77223,-5.4565 4.98735,-7.4473 14.41332,-14.6868 30.61608,-24.8951 15.86684,-9.9967 23.04844,-12.3501 41.19498,-13.5159 3.8839,-0.2496 7.9929,-0.6541 11.4002,-1.0927 3.4072,-0.4386 6.4131,-1.0482 6.8136,-1.1762 11.4939,-3.6747 33.8742,-9.5575 42.1485,-10.9687 1.5656,-0.267 4.5991,-0.6108 9.2426,-1.1274 4.6434,-0.5167 10.5543,-1.1431 16.62,-1.7609 19.9681,-2.0335 33.3323,-2.5034 49.9086,-1.7956 -2.6927,-1.1882 -5.6322,-2.6516 -7.7462,-3.4451 -2.511,-0.9424 -7.1639,-2.0864 -8.7207,-2.2619 -7.8245,-0.8819 -29.1067,-3.5135 -39.1,-4.8301 -4.8846,-0.6435 -13.2869,-1.2262 -17.8728,-1.2528 -6.8332,-0.04 -10.7916,-0.1855 -12.3328,-1.1901 -1.5411,-1.0046 -4.3263,-2.4935 -7.3356,-3.8209 -3.0093,-1.3274 -6.8653,-2.9556 -10.7946,-4.5448 l -13.502,-5.4564 -17.9493,0.042 c -8.97119,0.022 -13.76095,0.086 -16.87049,0.4037 -3.10957,0.3181 -4.68492,0.8088 -8.37961,2.067 -7.00214,2.3847 -24.3071,11.2052 -28.59079,14.365 -2.26569,1.6713 -5.78612,3.6898 -8.8807,5.2338 -8.3154,4.1489 -20.14799,13.5766 -31.40951,25.5076 -3.86534,4.0951 -9.95657,10.5005 -13.57161,14.2676 -12.6344,13.1662 -22.41404,37.5843 -22.45923,56.2351 -0.0208,8.5622 5.4517,29.4408 13.17486,47.0064 3.25058,7.3931 3.98404,10.8577 4.50301,22.0417 0.82796,17.8433 -1.90845,32.1547 -10.39792,55.205 -1.02705,2.7885 -2.0619,5.442 -2.92314,7.5235 -0.43061,1.0408 -0.812,1.9306 -1.1553,2.6726 -0.34333,0.742 -0.0891,0.8203 -1.37804,2.3733 0.96273,-1.16 -0.0398,0.1541 -0.5359,1.2179 -0.49613,1.0639 -1.10516,2.4711 -1.65645,3.8697 -2.80551,7.1177 -7.82632,14.1995 -16.01448,23.2526 -2.94067,3.2514 -6.70505,7.6935 -7.90632,9.2705 -1.32648,1.7414 -2.83102,2.9877 -4.80223,4.5935 -1.97124,1.6057 -4.30556,3.3558 -6.74404,5.0667 -4.87692,3.4217 -9.83851,6.6104 -13.75256,8.2543 -6.59395,2.7694 -14.18099,3.988 -23.23177,3.988 -12.74722,0 -23.14525,-1.9094 -29.73917,-7.7185 -0.11129,-0.098 -2.81556,-2.2156 -4.99715,-3.8139 -2.66536,-1.9528 -7.5152,-6.0166 -11.46275,-9.5349 -6.77807,-6.0411 -8.74012,-6.916 -14.62253,-6.925 -6.50569,-0.01 -12.61441,-2.8866 -17.30899,-7.8228 -4.91708,-5.1703 -9.40153,-14.2131 -11.4419,-21.7006 -1.4037,-5.1512 -1.96212,-13.7706 -2.37327,-24.5542 -0.41111,-10.7835 -0.45348,-23.1376 0.0348,-33.5253 2.55279,-54.3106 3.24317,-65.4352 4.7605,-74.6228 0.85857,-5.1988 1.75563,-10.8993 1.9209,-12.1379 0.48145,-3.608 2.04935,-9.0477 4.27331,-16.2303 2.224,-7.1825 5.08403,-15.6709 8.00378,-23.6493 3.10277,-8.4787 7.3195,-20.1626 9.35396,-25.8974 2.11973,-5.9755 6.33093,-16.7395 9.48616,-24.2757 3.15679,-6.8197 5.3687,-14.0075 8.1012,-20.5105 1.34376,-3.1258 2.74386,-6.2602 4.54474,-10.7807 1.80091,-4.5206 3.75348,-9.9372 5.25464,-13.3489 1.5012,-3.4117 1.92681,-5.5098 2.31761,-7.9551 0.78163,-4.8904 1.44504,-11.2134 1.87218,-17.5595 0.42711,-6.3461 0.62132,-12.7458 0.50807,-17.8031 -0.0566,-2.5287 -0.19011,-4.7236 -1.26668,-8.0943 -1.07658,-3.3706 -1.53986,-6.1415 -2.07402,-9.4026 -1.37565,-8.3988 -6.36682,-26.7748 -8.01767,-30.6022 -1.03019,-2.3885 -2.35285,-6.4024 -3.36158,-9.9038 -0.12654,-0.4392 -1.21869,-3.2838 -2.67951,-6.6536 -1.46086,-3.3698 -3.3505,-7.56 -5.37295,-11.9082 -4.04494,-8.6962 -8.65289,-18.123 -11.254,-22.8351 -0.92859,-1.6822 -1.41959,-3.1962 -2.28974,-5.6374 -0.87023,-2.4412 -1.8595,-5.3979 -2.77697,-8.3587 -1.77914,-5.7412 -4.28786,-13.63804 -5.53305,-17.41338 -1.27392,-3.86241 -2.75313,-8.81635 -3.52165,-11.77596 z m 284.64837,211.86294 c 1.8607,0.058 3.8543,0.183 5.8463,0.341 11.2586,0.8934 16.4583,2.325 13.1331,5.9994 -1.5801,1.7459 -9.5002,5.04 -11.9291,4.9623 -0.5895,-0.019 -4.6686,-1.9268 -9.0686,-4.2455 -4.4,-2.3186 -8.00375,-4.6653 -8.00375,-5.2128 0,-1.628 4.44011,-2.0188 10.02205,-1.8444 z m -130.3568,73.7459 c -2.95539,0 -34.23409,12.5366 -38.98177,15.6248 -2.15177,1.3996 -2.27741,1.964 -1.67035,7.6905 l 0.65421,6.1803 -6.83452,2.3942 c -16.04765,5.622 -17.32987,6.2233 -17.32987,8.0594 0,0.9931 0.59605,2.2925 1.32235,2.8953 0.72636,0.6028 8.25909,2.2346 16.74525,3.6191 22.84422,3.7268 20.62211,2.7781 22.09038,9.347 0.69864,3.1257 1.28129,6.1096 1.3015,6.6257 0.0202,0.5161 -2.29455,1.8796 -5.15027,3.0275 -6.45641,2.5954 -6.7026,2.8439 -5.89492,6.062 0.8281,3.2995 6.24641,5.8132 20.58704,9.5697 5.77501,1.5127 11.28672,2.7847 12.24923,2.8257 2.40901,0.1025 2.21466,-1.9751 -1.09963,-11.9222 -8.15697,-24.4812 -8.21338,-40.455 -0.2297,-62.5058 3.30165,-9.1191 3.38713,-9.4932 2.24107,-9.4932 z m 449.9921,18.0537 c -5.6218,0.6327 -11.0924,8.7362 -23.6285,30.4421 -12.2582,21.2249 -20.9925,34.584 -26.9552,41.2159 -4.5981,5.1142 -17.4729,14.4211 -25.7095,18.5896 -2.5753,1.3034 -6.9975,5.2941 -10.899,9.8342 -5.5906,6.5056 -7.6484,10.0886 -13.8848,24.1852 -6.8775,15.5459 -15.393,30.6389 -19.8493,35.1748 -1.0807,1.1 -7.4746,6.9509 -14.2119,13.0009 -14.2483,12.795 -30.743,30.5739 -31.6253,34.0891 -1.1876,4.7318 0.934,5.6348 12.5694,5.3729 5.7992,-0.1304 11.1024,-0.1726 11.7899,-0.097 0.8515,0.093 1.2564,2.1247 1.2597,6.3821 0,5.5827 -0.9256,9.6995 -4.3081,19.1046 -1.4617,4.0642 -13.5393,12.7247 -23.893,17.135 -7.5351,3.2097 -8.7326,4.059 -8.999,6.3613 -0.2537,2.1914 -1.649,3.3464 -7.9759,6.6187 -6.0154,3.1112 -7.7824,4.5308 -8.1917,6.577 -0.4225,2.1124 -1.8135,3.1466 -7.3286,5.4496 -21.3086,8.8969 -32.0579,16.5086 -23.3153,16.5086 3.7966,0 3.9343,2.1139 0.5985,9.3122 -1.322,2.8528 -2.9371,6.6046 -3.5843,8.3378 -1.498,4.0118 -4.3486,6.514 -10.0151,8.7833 -2.475,0.9911 -6.7561,2.8721 -9.5141,4.1828 -3.5767,1.6998 -6.7555,2.3802 -11.0939,2.3802 -3.345,0 -10.2179,0.2958 -15.2697,0.6543 l -9.18,0.6542 2.0253,2.1575 c 1.1174,1.1894 2.0323,2.6402 2.0323,3.2224 0,0.5822 -5.2857,4.3398 -11.7482,8.3448 -6.4625,4.0049 -14.6179,9.572 -18.1233,12.3745 -5.5023,4.399 -14.81462,14.7675 -20.07892,21.8398 0.24481,56.9391 1.05641,73.4039 4.2385,102.1697 1.12661,10.1845 2.71602,24.8064 3.53562,32.5231 2.7794,26.1714 7.4478,69.9685 8.5257,79.9888 1.6963,15.7701 3.3052,29.7625 4.6004,40.1511 0.6266,5.0253 1.1719,9.1113 1.6216,12.2214 1.3247,-0.7145 2.8402,-1.5801 4.5587,-2.6796 8.9936,-5.7541 10.4316,-5.8267 11.9917,-0.6194 0.6591,2.2 1.6894,3.9927 2.2898,3.981 0.6004,-0.011 6.2172,-3.8416 12.4859,-8.5049 6.2686,-4.6632 12.1824,-8.477 13.1401,-8.477 2.2232,0 2.6872,2.4876 3.9809,21.4988 0.5614,8.25 1.4512,21.3015 1.9836,29.0015 1.5301,22.1303 1.2497,51.2169 -0.6125,62.8817 -1.1299,7.0775 -1.483,14.0281 -1.1692,23.1204 0.4208,12.1948 0.6828,13.5894 4.2454,22.501 2.0888,5.225 4.8591,11.616 6.1595,14.2049 l 0.3897,0.7726 c 9.614,-4.776 17.3522,-9.119 24.5959,-13.857 8.1501,-5.3309 11.8194,-7.6496 16.5713,-10.558 l 0.2505,-7.6488 c 0.2046,-6.2776 0.8386,-17.9432 1.4128,-25.9183 0.5742,-7.975 1.0788,-22.15 1.1136,-31.5 0.036,-9.35 0.4934,-23.0728 1.0231,-30.4978 0.5298,-7.425 1.4357,-21.6 2.0114,-31.5 1.3664,-23.4972 1.9068,-27.4981 3.7026,-27.4981 0.7958,0 2.7419,2.8928 4.3777,6.5004 1.621,3.575 3.194,6.5005 3.4938,6.5005 0.2997,0 1.641,-2.4802 2.9788,-5.5052 1.3409,-3.032 3.0815,-5.4982 3.8836,-5.4982 0.92,0 2.284,2.5753 3.7095,7.0015 1.24,3.85 2.5259,7.0016 2.8535,7.0016 0.3275,0 1.162,-2.1411 1.8583,-4.7536 1.831,-6.8703 8.5304,-20.3592 11.4767,-23.1065 4.5877,-4.2778 4.951,-3.0742 5.0737,16.9054 0.1051,17.1368 1.2624,30.0756 5.714,63.9535 0.6143,4.675 1.3406,19.4083 1.6147,32.7458 0.1867,9.0898 0.5111,16.3302 0.8629,20.4826 1.1618,-0.5524 2.4857,-1.1892 3.4939,-1.8095 1.4043,-0.8641 2.7491,-1.6446 3.8627,-2.248 0.5567,-0.3019 1.0446,-0.5526 1.5311,-0.7795 0.2434,-0.1137 0.4801,-0.2195 0.8074,-0.3411 0.1696,-0.063 0.2929,-0.1653 0.5846,-0.2505 0.025,-0.011 0.096,-0.01 0.1322,-0.021 0.212,-0.109 0.4255,-0.217 0.7726,-0.4106 0.9557,-0.5329 2.2769,-1.319 3.6469,-2.1784 7.4451,-4.6703 9.0504,-5.6008 14.1422,-8.2056 3.0873,-1.5793 6.2168,-3.4183 8.4353,-4.8928 1.0524,-0.6993 1.8602,-1.3021 2.3246,-1.6842 0.1935,-0.299 0.3992,-0.5989 0.5429,-0.7865 0.3985,-0.5203 0.6974,-0.7988 0.9882,-1.0579 0.1155,-0.103 0.2285,-0.1641 0.3411,-0.2575 -0.3011,-4.1628 -0.6323,-11.6173 -0.8491,-19.8075 -0.653,-24.6635 0.8237,-38.8086 5.5957,-53.5835 5.2407,-16.2266 10.8957,-23.6002 13.9334,-18.172 0.5362,0.9579 1.1733,1.5162 1.4198,1.2458 0.2466,-0.2704 2.8102,-9.4896 5.6932,-20.4896 2.8828,-11 5.8463,-21.1739 6.5839,-22.6123 0.7375,-1.4383 2.8465,-3.3355 4.6909,-4.2107 l 3.3546,-1.5868 2.1854,-15.7988 c 1.2015,-8.6864 2.4718,-18.3799 2.8257,-21.5405 0.3538,-3.1607 1.2233,-6.5314 1.9348,-7.4957 1.2258,-1.6617 1.6278,-1.6382 7.6001,0.4315 3.4661,1.2012 6.4605,2.0234 6.6535,1.8304 0.1928,-0.1928 -0.587,-2.4691 -1.7329,-5.0597 -2.7262,-6.163 -2.6372,-7.302 0.6611,-8.0247 1.5126,-0.3314 3.2629,-0.7534 3.8836,-0.9396 0.6207,-0.1863 2.1595,-4.6923 3.4242,-10.0151 1.2648,-5.3227 2.9017,-9.9085 3.633,-10.1891 1.8768,-0.7202 5.8485,2.1199 7.9551,5.6861 0.9821,1.6625 2.1044,3.0275 2.4916,3.0275 0.3873,0 1.4671,-2.3671 2.4011,-5.2546 2.7479,-8.4955 5.5921,-9.9903 6.9807,-3.6678 1.0052,4.5765 1.7044,2.8253 1.9278,-4.844 0.1098,-3.7681 0.5268,-7.3887 0.9326,-8.0455 1.1518,-1.8638 3.8283,-1.4154 7.8368,1.3084 2.0235,1.375 4.0927,2.4986 4.6004,2.4986 0.5077,0 1.4935,-2.0179 2.1854,-4.4891 0.073,-0.2594 0.098,-0.4259 0.16,-0.6612 l -66.5425,-39.3576 c -0.8278,-0.5948 -1.3918,-0.6188 -2.5751,-2.5333 -1.0858,-1.7567 -0.9543,-3.0237 -0.8839,-3.9254 l 43.0185,-75.4789 c 1.0974,-0.9142 2.723,-1.9 4.8579,-1.9 l 45.3847,24.8186 c 1.0096,-6.4192 3.825,-11.4082 8.8042,-11.4697 2.4912,0 4.046,-0.5303 4.4194,-1.5033 0.3168,-0.8251 -0.6263,-5.1215 -2.0949,-9.5489 -3.2335,-9.7487 -3.0938,-12.3274 0.703,-12.7642 1.5125,-0.1739 2.7474,-0.8524 2.7422,-1.5033 -0.011,-0.651 -1.5492,-6.3457 -3.4312,-12.6599 -2.4647,-8.2694 -3.1254,-11.8358 -2.3663,-12.7503 0.5885,-0.7093 3.206,-1.2737 5.9366,-1.2737 h 4.8928 l -3.4799,-5.2476 c -4.2327,-6.3828 -7.5444,-15.6389 -7.5444,-21.1091 0,-2.5776 1.34,-6.9042 3.6817,-11.8943 3.6055,-7.6832 3.6608,-7.9718 2.7213,-14.7686 -1.2882,-9.3209 -0.582,-10.9756 4.6769,-10.9756 2.9093,0 3.9885,-0.3743 3.64,-1.2528 -4.4599,-11.2416 -6.8983,-15.7845 -10.9547,-20.42 -9.3624,-10.6989 -11.0246,-17.2504 -5.5539,-21.8537 l 3.2084,-2.6935 -4.4472,-8.644 c -3.9238,-7.6274 -4.4894,-9.5525 -4.8162,-16.4321 -0.4581,-9.6405 0.6085,-14.039 7.0294,-29.0711 l 5.0667,-11.8664 0.167,-32.1333 0.1601,-32.1334 3.2781,-6.3612 c 3.4776,-6.7436 7.1542,-19.4084 7.1268,-24.5542 -0.021,-4.1959 -3.7821,-10.5372 -7.8924,-13.3071 -3.501,-2.3593 -8.5104,-3.0284 -9.5906,-1.2806 -0.3399,0.55 -1.4832,1.0022 -2.5403,1.0022 -2.2281,0 -2.6065,-1.3749 -3.3686,-12.1239 -0.2972,-4.1928 -1.0112,-8.694 -1.5798,-10.0013 -2.2326,-5.1336 -10.8451,-15.5405 -15.416,-18.6243 -3.2955,-2.2234 -5.8868,-3.4822 -8.4422,-3.1946 z m -138.1518,740.7234 -0.028,0.014 c 0.2751,-0.072 0.6358,-0.1392 1.3989,-0.1392 -0.8246,0 -1.1643,0.062 -1.3711,0.1253 z m -0.028,0.014 c -0.021,0.01 -0.086,0 -0.1044,0.01 -0.1411,0.064 -0.1548,0.1346 -0.2018,0.1531 -0.1037,0.041 -0.052,0.025 0.042,-0.021 0.047,-0.021 0.1942,-0.1032 0.2644,-0.1392 z m -182.7432,-671.752 c 2.0706,0.1999 2.77,0.8139 2.77,1.921 0,1.0817 -1.3929,10.6494 -3.0902,21.2551 -3.33414,20.8352 -4.3501,27.2719 -8.40737,53.2842 -1.4584,9.35 -3.2875,21.0448 -4.07148,25.9948 -0.78402,4.95 -2.92653,18.4826 -4.76051,30.0733 -1.83398,11.5906 -3.66472,21.6035 -4.06453,22.2504 -0.39978,0.6469 -1.21954,1.1762 -1.82344,1.1762 -1.1498,0 -0.81402,-15.9467 1.19011,-56.4996 0.54364,-11 1.66009,-34.8488 2.48466,-52.9988 0.82454,-18.15 1.76642,-35.7511 2.08791,-39.114 l 0.58465,-6.1107 6.08285,-0.6403 c 5.50594,-0.5755 8.94677,-0.7914 11.01735,-0.5916 z m -31.81321,0.9883 c 1.30083,-0.068 2.59688,0.1851 2.98575,0.8143 0.55105,0.8916 -0.24509,16.4735 -2.93008,57.1469 -0.88908,13.4687 -1.75866,24.6215 -1.92785,24.7907 -1.4853,1.4853 -2.62103,-79.2346 -1.14838,-81.6174 0.41493,-0.6714 1.71971,-1.0663 3.02056,-1.1345 z m 290.59901,21.5824 c 4.6782,0.1977 1.2262,5.3362 -12.1379,19.9467 -7.7663,8.4908 -14.3061,15.4368 -14.532,15.4368 -0.2259,0 -0.6753,-0.6767 -0.9952,-1.5103 -0.32,-0.8335 0.5814,-5.2217 1.9974,-9.7506 2.3857,-7.6305 3.108,-8.7631 9.862,-15.4368 5.5092,-5.4439 8.2652,-7.4194 11.2888,-8.0873 1.9234,-0.4249 3.4373,-0.6442 4.5169,-0.5985 z m 86.9904,301.0456 c 0.1689,5e-4 0.2163,0.036 0.3619,0.042 10e-4,0 0.01,-0.01 0.01,-0.014 -0.1518,-0.01 -0.1436,-0.028 -0.3689,-0.028 z m -440.68685,24.5333 c -21.44198,3.9575 -45.90059,6.9975 -60.34139,25.2571 -12.21912,13.0188 -26.40848,23.1092 -44.11807,26.5585 -31.0443,10.084 -61.42082,28.1041 -76.85695,57.989 -18.07032,27.7732 -34.77082,56.6095 -54.65526,83.1138 -7.18762,11.5096 -35.99827,13.6997 -20.96288,27.5677 -6.63457,18.6049 -26.79853,26.16 -45.11333,26.8648 -9.07245,0.4958 -23.86527,1.0044 -9.98033,6.2916 29.87415,17.2964 59.40838,35.2018 89.97615,51.2728 11.54414,-15.6492 29.59777,-13.324 40.8609,-30.3586 19.85765,-13.4963 1.19364,21.491 -1.78866,29.4538 -2.31504,10.0507 -20.95667,17.7048 -3.43812,22.3061 15.93277,8.951 34.20113,19.9203 48.34962,28.1594 6.95047,3.4533 12.58223,-4.4774 18.93063,-7.0086 13.72473,-7.6487 26.6726,-17.0514 41.12541,-23.1621 7.20907,13.4632 2.76749,32.272 0.96045,47.4657 -2.29099,10.2809 -15.57222,13.7305 1.4198,18.527 10.416,2.684 26.48966,21.1018 32.92675,16.5086 6.32167,-30.7452 7.16032,-62.5539 11.2679,-93.7205 10.48195,-102.6993 22.05424,-205.3253 31.44433,-308.1168 -0.003,-1.657 -0.004,-3.3123 -0.007,-4.9693 z m 8.8946,55.2607 c 0.81246,0.4561 0.0128,38.7787 -0.91174,41.188 -0.70341,1.8331 -5.221,1.7328 -5.93668,-0.1322 -0.63229,-1.6477 5.32659,-37.7445 6.76489,-40.9792 0.0296,-0.067 0.0573,-0.091 0.0835,-0.077 z m 66.49384,2.5821 c 0.0661,-0.089 0.14631,-0.072 0.22966,0.063 0.54702,0.8802 2.36917,9.8846 4.0506,20.0025 2.86641,17.2486 2.95051,18.4721 1.34323,19.6474 -4.37302,3.1976 -5.02637,0.7853 -5.7418,-21.2482 -0.381,-11.7326 -0.34419,-17.8391 0.11831,-18.4643 z m -52.8805,22.4592 c 0.70227,0.7023 0.18216,150.3019 -0.52892,152.1549 -0.56637,1.476 -14.77369,2.0068 -15.65257,0.5846 -0.26027,-0.421 0.16235,-6.8302 0.93956,-14.2466 3.42626,-32.6935 4.67146,-44.7594 8.40745,-81.4852 4.71464,-46.3468 6.08035,-57.7618 6.83448,-57.0077 z m 40.2415,0.2158 c 0.41108,0.4332 1.70584,11.5907 2.87439,24.7907 2.98956,33.7701 6.84485,77.1529 8.53274,95.9964 1.43797,16.0539 1.78705,22.1692 1.61465,28.3055 -0.0783,2.7848 -0.63789,3.5243 -3.56341,4.7465 -4.26919,1.7839 -7.60418,1.8492 -9.87593,0.188 -1.62249,-1.1864 -1.68681,-5.9708 -1.03007,-78.0401 0.38481,-42.2256 1.03659,-76.4202 1.44763,-75.987 z m -59.60362,30.289 c 3.41285,0 3.53654,0.1271 3.54253,3.7513 0.004,2.0625 -0.93301,14.5487 -2.07402,27.7487 -1.66507,19.2625 -2.3929,24.2468 -3.69565,25.2501 -1.90867,1.4699 -5.8725,1.6558 -6.70227,0.3132 -0.57788,-0.935 4.0703,-53.4333 4.94145,-55.8106 0.25193,-0.6875 2.04568,-1.2527 3.98796,-1.2527 z m 78.09581,1.03 c 1.28999,0.056 2.58454,0.4051 2.95788,1.0092 0.35199,0.5696 1.01806,3.6011 1.48245,6.744 0.46438,3.143 2.22727,14.8314 3.91836,25.967 1.69109,11.1356 3.07622,20.6438 3.07622,21.1369 0,1.9282 -6.44892,1.9615 -8.44222,0.042 -1.03036,-0.9924 -6.70591,-52.8799 -5.92278,-54.1471 0.35402,-0.5728 1.6401,-0.8072 2.93009,-0.7517 z m -63.91871,61.5106 c -1.38453,13.4569 -2.8126,27.5503 -4.7466,46.0042 -0.36529,3.4859 -0.63269,6.6597 -0.80035,9.1104 0.79069,0.012 1.4418,0.067 2.29673,0.035 1.03966,-0.039 1.84749,-0.1512 2.7491,-0.2436 0.0244,-0.9287 0.0458,-1.6801 0.0696,-2.937 0.0802,-4.2378 0.15412,-10.2255 0.22272,-17.3647 0.0913,-9.4975 0.14699,-22.3947 0.20881,-34.6041 z m 49.22658,2.7144 c -0.14838,18.7566 -0.3381,38.8048 -0.24359,45.9763 0.0608,4.6131 0.20995,6.9363 0.35495,8.3657 0.71603,-0.046 1.80576,-0.272 3.48687,-0.9744 0.17432,-0.073 0.15529,-0.081 0.27837,-0.1392 0.15447,-5.7868 -0.17161,-11.6274 -1.59381,-27.5051 -0.45234,-5.0502 -1.57745,-17.8071 -2.28279,-25.7233 z m 21.17169,3.7791 c 1.55347,0.076 3.14885,0.4998 3.73738,1.218 1.20165,1.4664 3.70418,26.7985 2.93698,29.7322 -0.2881,1.1018 0.051,3.9251 0.7587,6.2777 0.8018,2.6642 1.0947,7.0083 0.7725,11.5115 -0.4375,6.1145 -0.7967,7.2243 -2.3245,7.2243 -2.44846,0 -2.59773,-0.4021 -3.3686,-8.999 -0.36989,-4.125 -1.30941,-9.7498 -2.08791,-12.4998 -1.64691,-5.8175 -4.72195,-32.2792 -3.90447,-33.6019 0.41364,-0.6692 1.92642,-0.9389 3.47992,-0.863 z m -90.86006,1.0718 c 1.45035,-0.1603 2.81325,1.3339 2.81175,3.6122 -0.002,2.5208 -1.22221,15.3969 -3.91138,41.1184 -0.53679,5.1342 -1.50469,9.9746 -2.15059,10.7529 -1.45138,1.7488 -3.35994,1.8104 -4.71874,0.16 -1.28368,-1.5592 4.86751,-53.2311 6.53523,-54.8988 0.45358,-0.4536 0.95029,-0.6912 1.43373,-0.7447 z m 11.79686,47.3196 c -0.0926,0.025 -0.13477,0.069 -0.13224,0.07 0.007,0 0.37216,0.052 0.66116,0.091 -0.0228,-0.011 -0.0829,-0.1023 -0.10438,-0.1114 -0.19246,-0.077 -0.33189,-0.073 -0.42454,-0.049 z m 1.80259,22.3688 c 0.95677,-0.012 2.07992,0.01 3.38242,0.063 3.99958,0.1633 7.6954,0.5574 8.21256,0.877 0.84328,0.5212 0.28472,142.9604 -0.56373,143.7683 -0.17372,0.1654 -6.78798,0.6336 -14.69907,1.0371 l -14.37894,0.7307 0.67512,-4.5169 c 0.37252,-2.4842 0.67545,-8.28 0.67509,-12.8826 -3.6e-4,-4.6025 0.66233,-15.347 1.46852,-23.872 2.87457,-30.3981 4.47201,-46.927 6.38909,-66.0763 1.06924,-10.6806 2.25329,-23.3111 2.63079,-28.0688 0.37748,-4.7578 1.05431,-9.2469 1.5033,-9.9734 0.43869,-0.7095 1.83441,-1.0493 4.70485,-1.0857 z m 82.98847,0.2645 c 0.34,-0.08 0.8302,0.033 1.4825,0.1252 2.1118,0.3 2.3432,1.1444 3.8557,13.8152 3.1229,26.1622 4.1218,36.9642 3.5425,38.4737 -0.6373,1.6607 -3.1988,2.0637 -4.0784,0.6404 -0.3015,-0.4878 -1.2362,-7.8015 -2.074,-16.2512 -0.8379,-8.4496 -1.9694,-19.7685 -2.5125,-25.1526 -0.95289,-9.4467 -1.23554,-11.412 -0.2158,-11.6507 z m -104.92577,0.083 c 0.42084,-0.021 0.89143,-0.01 1.39893,0.042 l 3.25721,0.3202 -0.23665,7.4957 c -0.26943,8.5127 -3.09372,42.3362 -3.82094,45.7536 -0.37287,1.7524 -1.17304,2.248 -3.61212,2.248 h -3.13189 l 0.6194,-10.2517 c 1.62456,-26.9788 2.80483,-43.3683 3.21544,-44.5635 0.21099,-0.6142 1.04818,-0.9822 2.31062,-1.044 z m 72.65327,0.3619 8.50487,0.3619 c 4.67498,0.2026 8.77123,0.8044 9.10338,1.3293 0.33218,0.5249 0.88843,5.079 1.23885,10.1265 0.59955,8.6358 1.59042,20.2927 5.08759,59.6802 5.0221,56.5623 6.36607,73.4538 5.89495,74.2471 -0.24498,0.4125 -2.78238,0.6569 -5.63742,0.5428 -2.85504,-0.1142 -9.45829,-0.3526 -14.67819,-0.5359 -5.2199,-0.1832 -9.84136,-0.6823 -10.26569,-1.1066 -0.42434,-0.4244 -0.33037,-27.6485 0.20878,-60.4945 0.54238,-33.0439 0.60072,-61.8233 0.13223,-64.4337 -0.46566,-2.5949 -0.56148,-8.0964 -0.21572,-12.2214 z m -47.55626,4.6909 c -1.70595,-0.07 -2.46784,-0.01 -3.36853,0.028 -0.24513,1.6392 -0.491,3.8154 -0.66814,6.0481 -0.38816,4.8923 -1.57282,17.473 -2.64473,28.1802 -1.91601,19.139 -3.51484,35.6613 -6.38909,66.0553 -0.45986,4.8631 -0.82122,10.1714 -1.0857,14.9079 2.02665,-1.5243 5.03407,-3.9487 9.84809,-7.7949 2.83634,-2.2662 5.46083,-4.4327 7.50961,-6.1804 0.0925,-10.8823 0.1956,-21.6185 0.2436,-33.9498 0.0696,-17.8777 0.081,-35.7475 0.0278,-49.164 -0.0266,-6.7082 -0.069,-12.3051 -0.13224,-16.2093 -0.0119,-0.7347 -0.0285,-1.0813 -0.0417,-1.6912 -1.06211,-0.085 -2.06657,-0.1794 -3.29897,-0.2297 z m -4.88576,0.042 c -0.35737,0.045 -0.26708,0.1522 0.0626,0 -0.009,0 -0.0536,-10e-4 -0.0626,0 z m 298.17822,50.2983 c -0.2847,0.3083 -0.5777,0.8879 -0.5777,2.5682 0,-1.3158 0.2691,-2.0375 0.5777,-2.5682 z m -321.40999,12.5694 c 1.13676,0.1415 1.17621,1.1605 1.17621,4.9415 0,10.9947 -3.21324,50.5039 -4.20372,51.6973 -0.57385,0.6915 -2.17668,1.2597 -3.56341,1.2597 h -2.51944 l 0.59854,-7.7532 c 0.32844,-4.2625 1.10847,-15.6251 1.73296,-25.2501 1.49165,-22.9887 1.7868,-24.4173 5.2338,-24.8186 0.66194,-0.077 1.16613,-0.1237 1.54506,-0.077 z m 115.57419,2.8953 c 1.0301,0 1.5601,2.1666 2.0323,8.2543 0.352,4.5375 1.0517,12.9747 1.552,18.7497 0.5004,5.775 1.1692,13.5338 1.4894,17.2464 0.3841,4.4514 0.2253,6.7509 -0.4732,6.7509 -1.5835,0 -1.72,-0.7912 -3.9532,-23.5032 -2.4618,-25.037 -2.516,-27.4981 -0.6473,-27.4981 z m -123.66146,65.9997 c 1.20443,0 1.39465,0.7874 0.90475,3.7513 -0.34091,2.0625 -0.62734,4.3096 -0.63333,4.9971 -0.0258,2.9323 -1.82902,0.9279 -2.24801,-2.4985 -0.55882,-4.5698 -0.0282,-6.2499 1.97659,-6.2499 z"
       id="path4535"
       inkscape:connector-curvature="0" />
  </g>
</svg>
